0.000000 0.050000 0.000000
0.010000 0.049384 0.010322
0.020000 0.047553 0.020451
0.030000 0.044550 0.030200
0.040000 0.040451 0.039389
0.050000 0.035355 0.047855
0.060000 0.029389 0.055451
0.070000 0.022700 0.062050
0.080000 0.015451 0.067553
0.090000 0.007822 0.071884
0.100000 0.000000 0.075000
0.110000 -0.007822 0.076884
0.120000 -0.015451 0.077553
0.130000 -0.022700 0.077050
0.140000 -0.029389 0.075451
0.150000 -0.035355 0.072855
0.160000 -0.040451 0.069389
0.170000 -0.044550 0.065200
0.180000 -0.047553 0.060451
0.190000 -0.049384 0.055322
0.200000 -0.050000 0.050000
0.210000 -0.049384 0.044678
0.220000 -0.047553 0.039549
0.230000 -0.044550 0.034800
0.240000 -0.040451 0.030611
0.250000 -0.035355 0.027145
0.260000 -0.029389 0.024549
0.270000 -0.022700 0.022950
0.280000 -0.015451 0.022447
0.290000 -0.007822 0.023116
0.300000 -0.000000 0.025000
0.310000 0.007822 0.028116
0.320000 0.015451 0.032447
0.330000 0.022700 0.037950
0.340000 0.029389 0.044549
0.350000 0.035355 0.052145
0.360000 0.040451 0.060611
0.370000 0.044550 0.069800
0.380000 0.047553 0.079549
0.390000 0.049384 0.089678
0.400000 0.050000 0.100000
